<svg xmlns="http://www.w3.org/2000/svg" width="48" height="48" viewBox="0 0 48 48">
  <defs>
    <linearGradient id="grad1" x1="0%" y1="0%" x2="100%" y2="100%">
      <stop offset="0%" style="stop-color:#ff0050;stop-opacity:1" />
      <stop offset="100%" style="stop-color:#ff4081;stop-opacity:1" />
    </linearGradient>
    <filter id="shadow" x="-20%" y="-20%" width="140%" height="140%">
      <feDropShadow dx="2" dy="2" stdDeviation="3" flood-color="rgba(0,0,0,0.3)"/>
    </filter>
  </defs>
  
  <!-- Ana arka plan -->
  <rect width="48" height="48" rx="8" fill="url(#grad1)" filter="url(#shadow)"/>
  
  <!-- TikTok benzeri müzik notu -->
  <path d="M15 10.5C15 9.67 15.67 9 16.5 9H19.5C20.33 9 21 9.67 21 10.5V28.5C21 31 19 33 16.5 33S12 31 12 28.5S14 24 16.5 24C17 24 17.5 24.15 17.9 24.4V10.5Z" fill="white" opacity="0.95"/>
  
  <!-- Takip simgesi (kişi) -->
  <circle cx="30" cy="18" r="4.5" fill="white" opacity="0.9"/>
  <path d="M22.5 31.5C22.5 29 25 26.5 27.5 26.5H32.5C35 26.5 37.5 29 37.5 31.5V37.5H22.5V31.5Z" fill="white" opacity="0.9"/>
  
  <!-- Çarpı işareti (takipten çıkarma) -->
  <g transform="translate(28, 12)">
    <circle cx="6" cy="6" r="8" fill="#ff0050" stroke="white" stroke-width="2" opacity="0.9"/>
    <path d="M3 3L9 9M9 3L3 9" stroke="white" stroke-width="2.5" stroke-linecap="round"/>
  </g>
  
  <!-- Dekoratif elementler -->
  <circle cx="8" cy="8" r="2" fill="white" opacity="0.3"/>
  <circle cx="40" cy="40" r="1.5" fill="white" opacity="0.4"/>
  <circle cx="6" cy="42" r="1" fill="white" opacity="0.3"/>
</svg>