<svg xmlns="http://www.w3.org/2000/svg" width="128" height="128" viewBox="0 0 128 128">
  <defs>
    <linearGradient id="grad1" x1="0%" y1="0%" x2="100%" y2="100%">
      <stop offset="0%" style="stop-color:#ff0050;stop-opacity:1" />
      <stop offset="30%" style="stop-color:#ff1744;stop-opacity:1" />
      <stop offset="70%" style="stop-color:#ff4081;stop-opacity:1" />
      <stop offset="100%" style="stop-color:#e91e63;stop-opacity:1" />
    </linearGradient>
    <linearGradient id="grad2" x1="0%" y1="0%" x2="100%" y2="100%">
      <stop offset="0%" style="stop-color:#ffffff;stop-opacity:1" />
      <stop offset="100%" style="stop-color:#f8f9fa;stop-opacity:1" />
    </linearGradient>
    <filter id="shadow" x="-20%" y="-20%" width="140%" height="140%">
      <feDropShadow dx="4" dy="4" stdDeviation="6" flood-color="rgba(0,0,0,0.3)"/>
    </filter>
    <filter id="innerShadow" x="-50%" y="-50%" width="200%" height="200%">
      <feGaussianBlur in="SourceGraphic" stdDeviation="2"/>
      <feOffset dx="1" dy="1" result="offset"/>
    </filter>
  </defs>
  
  <!-- Ana arka plan -->
  <rect width="128" height="128" rx="20" fill="url(#grad1)" filter="url(#shadow)"/>
  
  <!-- İç gölge efekti -->
  <rect x="4" y="4" width="120" height="120" rx="16" fill="none" stroke="rgba(255,255,255,0.2)" stroke-width="1"/>
  
  <!-- TikTok benzeri müzik notu (ana element) -->
  <g transform="translate(20, 20)">
    <path d="M20 18C20 16.34 21.34 15 23 15H29C30.66 15 32 16.34 32 18V58C32 62.42 28.42 66 24 66S16 62.42 16 58S19.58 50 24 50C25.5 50 26.9 50.4 28.1 51.1V18Z" fill="url(#grad2)" filter="url(#innerShadow)"/>
    
    <!-- Müzik notası detayları -->
    <ellipse cx="24" cy="58" rx="8" ry="6" fill="url(#grad2)" opacity="0.9"/>
    <rect x="30" y="18" width="2" height="33" fill="url(#grad2)" opacity="0.8"/>
  </g>
  
  <!-- Takip simgesi (kişi) -->
  <g transform="translate(65, 25)">
    <circle cx="15" cy="15" r="12" fill="url(#grad2)" opacity="0.9" filter="url(#innerShadow)"/>
    <path d="M0 45C0 37.27 6.27 31 14 31H16C23.73 31 30 37.27 30 45V55H0V45Z" fill="url(#grad2)" opacity="0.9" filter="url(#innerShadow)"/>
  </g>
  
  <!-- Çarpı işareti (takipten çıkarma) - ana özellik -->
  <g transform="translate(75, 35)">
    <circle cx="15" cy="15" r="20" fill="#ff0050" stroke="white" stroke-width="3" opacity="0.95" filter="url(#shadow)"/>
    <path d="M8 8L22 22M22 8L8 22" stroke="white" stroke-width="4" stroke-linecap="round" stroke-linejoin="round"/>
  </g>
  
  <!-- Dekoratif elementler -->
  <g opacity="0.3">
    <circle cx="20" cy="20" r="4" fill="white"/>
    <circle cx="108" cy="108" r="3" fill="white"/>
    <circle cx="15" cy="110" r="2" fill="white"/>
    <circle cx="110" cy="25" r="2.5" fill="white"/>
  </g>
  
  <!-- Parlama efekti -->
  <g opacity="0.4">
    <ellipse cx="35" cy="35" rx="8" ry="15" fill="white" transform="rotate(-45 35 35)"/>
  </g>
  
  <!-- Alt kısım vurgu -->
  <rect x="0" y="100" width="128" height="28" rx="0 0 20 20" fill="rgba(255,255,255,0.1)"/>
  
  <!-- Üst kısım vurgu -->
  <rect x="0" y="0" width="128" height="25" rx="20 20 0 0" fill="rgba(255,255,255,0.15)"/>
</svg>